<svg xmlns="http://www.w3.org/2000/svg" xmlns:xlink="http://www.w3.org/1999/xlink" width="300" zoomAndPan="magnify" viewBox="0 0 224.87999 225" height="300" preserveAspectRatio="xMidYMid meet" version="1.0"><defs><clipPath id="cc1c807234"><path d="M 0 1 L 221.882812 1 L 221.882812 224.9375 L 0 224.9375 Z M 0 1 " clip-rule="nonzero"/></clipPath><clipPath id="5eb5836bc9"><path d="M 32.644531 173.378906 C 30.15625 172.25 29.394531 168.652344 27.101562 165.921875 C 26.601562 164.953125 27.617188 166.230469 28.925781 168.070312 C 30.1875 169.910156 32.03125 172.105469 32.644531 173.378906 Z M 21.136719 174.023438 L 20.183594 174.71875 C 21.332031 176.511719 22.671875 178.058594 23.398438 177.640625 C 22.671875 176.703125 22.089844 176.285156 21.492188 175.882812 C 21.832031 175.511719 22.058594 175.140625 21.136719 174.023438 Z M 79.347656 202.238281 C 81.464844 202.964844 83.46875 203.546875 84.792969 203.464844 C 76.9375 201.527344 67.890625 197.152344 61.683594 194.363281 C 63.558594 195.394531 65.417969 196.460938 67.339844 197.410156 L 73.238281 199.976562 C 75 200.65625 77.230469 201.527344 79.347656 202.238281 Z M 192 183.726562 C 190.53125 185.726562 188.882812 187.40625 187.378906 189.082031 C 185.84375 190.730469 184.390625 192.359375 182.902344 193.796875 C 179.847656 196.605469 177.101562 199.316406 174.335938 201.671875 C 174.273438 201.722656 174.207031 201.785156 174.144531 201.835938 C 172.769531 202.351562 171.460938 202.625 170.25 202.558594 C 168.308594 204.109375 166.289062 205.304688 164.398438 206.53125 C 162.476562 207.726562 160.667969 208.917969 158.855469 209.9375 C 158.808594 209.96875 158.757812 209.984375 158.726562 210 C 158.53125 209.984375 158.355469 209.953125 158.128906 209.96875 C 158.097656 210.097656 158.0625 210.242188 158.03125 210.371094 C 154.671875 212.148438 151.566406 213.875 148.546875 215.328125 C 145.25 216.84375 142.179688 218.492188 139.125 220.007812 C 136.054688 221.476562 133.0625 223.105469 130.011719 224.929688 C 133.128906 223.785156 136.796875 222.445312 140.757812 221.007812 C 144.585938 219.328125 148.757812 217.78125 152.796875 215.90625 C 153.960938 215.34375 155.140625 214.8125 156.320312 214.261719 C 156.320312 214.277344 156.304688 214.277344 156.304688 214.292969 C 157.417969 213.957031 158.082031 213.601562 158.628906 213.210938 C 160.667969 212.277344 162.671875 211.339844 164.578125 210.339844 C 162.6875 212.050781 160.8125 213.824219 158.953125 215.730469 C 161.667969 213.824219 164.867188 211.582031 168.308594 209.160156 C 168.925781 208.660156 169.570312 208.175781 170.21875 207.675781 C 170.21875 207.675781 170.234375 207.675781 170.234375 207.675781 C 172.011719 206.835938 173.691406 205.980469 175.324219 205.304688 C 175.648438 203.433594 172.933594 206.5625 172.496094 205.933594 C 173.691406 205.03125 174.886719 204.125 176.066406 203.171875 C 178.492188 201.398438 180.816406 199.671875 182.902344 197.816406 C 184.488281 196.476562 186.003906 195.152344 187.445312 193.84375 C 187.878906 193.425781 188.285156 192.988281 188.6875 192.554688 C 190.238281 191.199219 191.789062 189.890625 193.292969 188.679688 C 194.796875 187.40625 196.203125 186.144531 197.609375 185.066406 C 197.429688 183.097656 195.460938 187.226562 194.972656 186.339844 C 197.882812 182.660156 200.726562 179.351562 203.007812 175.882812 C 204.1875 174.1875 205.316406 172.507812 206.367188 170.863281 C 207.371094 169.183594 208.226562 167.457031 209.050781 165.777344 C 205.996094 169.617188 203.152344 173.6875 200.453125 177.171875 C 197.707031 180.625 194.796875 183.160156 192 183.726562 Z M 217.421875 127.558594 C 216.96875 129.6875 216.566406 131.675781 216.160156 133.5625 C 215.804688 135.46875 215.464844 137.257812 215.144531 139 C 214.753906 140.730469 214.398438 142.441406 214.109375 144.148438 C 214.65625 142.292969 215.238281 140.292969 215.855469 138.257812 C 216.339844 136.195312 216.824219 134.0625 217.308594 131.996094 C 218.328125 127.847656 218.617188 123.765625 218.503906 120.617188 C 218.117188 123.121094 217.761719 125.410156 217.421875 127.558594 Z M 72.511719 215.730469 C 74.660156 216.410156 77.183594 217.507812 79.703125 218.410156 C 82.222656 219.296875 84.792969 219.765625 86.8125 219.667969 C 84.484375 219.039062 81.5625 218.265625 78.976562 217.265625 C 76.359375 216.3125 73.980469 215.585938 72.511719 215.730469 Z M 218.328125 84.175781 C 218.988281 86.273438 219.652344 88.324219 220.28125 90.292969 C 219.730469 87.902344 219.152344 85.53125 218.519531 83.207031 C 217.761719 80.914062 216.96875 78.671875 216.144531 76.507812 C 215.722656 75.425781 215.304688 74.378906 214.882812 73.328125 C 214.433594 72.3125 213.914062 71.328125 213.414062 70.375 C 212.410156 68.46875 211.378906 66.679688 210.34375 65.046875 C 212.394531 69.277344 214.464844 73.523438 215.96875 77.847656 C 216.757812 79.996094 217.632812 82.09375 218.328125 84.175781 Z M 205.527344 57.203125 C 206.546875 58.882812 207.515625 60.289062 208.46875 61.144531 C 206.480469 57.867188 204.476562 53.863281 202.246094 51.796875 C 202.828125 52.71875 203.425781 53.636719 203.992188 54.542969 C 204.523438 55.460938 205.042969 56.367188 205.527344 57.203125 Z M 75.386719 174.1875 C 74.773438 173.6875 73.675781 172.945312 72.367188 172.152344 C 71.039062 171.363281 69.636719 170.3125 68.117188 169.507812 C 67.695312 169.730469 67 169.894531 67.890625 169.828125 C 69.390625 170.441406 70.75 172.054688 71.265625 172.554688 C 70.070312 171.667969 68.8125 170.605469 68.40625 171.636719 C 68.761719 171.652344 69.070312 171.765625 69.375 171.910156 C 69.28125 171.960938 69.199219 171.992188 69.101562 172.089844 C 69.035156 172.425781 69.828125 173.203125 70.765625 173.78125 C 71.71875 174.316406 72.769531 174.703125 73.027344 174.492188 C 72.625 174.332031 72.238281 173.976562 71.847656 173.574219 C 72.140625 173.6875 72.414062 173.671875 72.671875 173.429688 C 72.332031 173.316406 71.929688 173.039062 71.527344 172.75 C 75.96875 175.234375 76.617188 175.1875 75.386719 174.1875 Z M 77.261719 184.953125 C 79.054688 185.757812 81.011719 187.40625 82.238281 186.128906 C 80.171875 185.386719 78.476562 184.695312 77.261719 184.953125 Z M 1.066406 126.65625 C 1.390625 127.800781 1.730469 128.882812 2.035156 129.800781 C 1.695312 128.640625 1.421875 127.429688 1.292969 126.21875 C 1.195312 125.007812 1.164062 123.796875 1.132812 122.667969 C 1.066406 120.390625 1.019531 118.40625 0.5 117.101562 C 0.03125 118.457031 0.0976562 120.714844 0.421875 123.105469 C 0.582031 124.28125 0.808594 125.492188 1.066406 126.65625 Z M 67.726562 191.617188 C 67.484375 191.761719 68.84375 192.828125 72.6875 193.714844 C 71.25 192.875 70.054688 192.359375 69.199219 192.019531 C 68.375 191.667969 67.839844 191.535156 67.726562 191.617188 Z M 43.972656 174.234375 C 46.039062 175.671875 48.289062 177.738281 50.179688 177.980469 C 48.835938 176.898438 47.21875 175.15625 46.058594 173.914062 C 44.878906 172.667969 44.117188 171.910156 44.636719 172.652344 C 46.703125 174.605469 44.132812 172.925781 43.972656 174.234375 Z M 61.941406 188.164062 C 60.308594 185.855469 57.109375 185.484375 54.316406 182.949219 C 54.460938 185.421875 60.761719 186.871094 61.941406 188.164062 Z M 17.4375 59.496094 C 17.242188 58.949219 17.324219 57.867188 17.90625 57.996094 C 18.921875 56.511719 21.703125 51.652344 22.480469 50.976562 C 23.609375 49.199219 24.726562 47.457031 25.855469 45.777344 C 28.039062 42.777344 29.960938 39.675781 31.882812 36.753906 C 31.546875 38 31.382812 39.191406 30.253906 40.886719 C 31.609375 39.53125 32.917969 38.242188 34.226562 36.980469 C 35.132812 36.011719 36.039062 35.0625 36.957031 34.140625 C 39.867188 31.460938 42.695312 28.832031 45.507812 26.378906 C 48.398438 24.039062 51.050781 21.535156 53.667969 19.226562 C 53.023438 20.339844 52.554688 21.453125 51.019531 22.792969 C 51.195312 22.699219 51.359375 22.601562 51.535156 22.503906 C 58.371094 17.566406 65.449219 13.851562 73.289062 11.078125 C 72.882812 10.300781 71.039062 11.042969 69.132812 11.898438 C 67.953125 11.835938 69.78125 11.140625 71.945312 10.351562 C 74.078125 9.527344 76.664062 8.914062 76.761719 8.285156 C 76.582031 9.238281 78.039062 9.269531 80.429688 8.800781 C 81.546875 8.542969 82.902344 8.253906 84.390625 7.945312 C 89.609375 6.507812 94.859375 5.558594 100.324219 5.121094 C 100.195312 4.539062 99.191406 4.476562 97.914062 4.605469 C 97.480469 4.667969 97.058594 4.71875 96.605469 4.78125 C 96.445312 4.816406 96.285156 4.832031 96.105469 4.863281 C 95.425781 4.636719 95.878906 4.476562 96.847656 4.347656 C 97.835938 3.570312 101.695312 3.960938 104.878906 2.894531 C 104.089844 2.214844 101.890625 2.394531 100.582031 2.039062 C 105.234375 0.183594 106.851562 3.8125 112.445312 3.296875 C 111.910156 2.765625 110.667969 2.539062 109.082031 2.492188 C 109.632812 2.085938 111.039062 2.085938 110.777344 1.3125 C 117.097656 1.570312 123.449219 2.410156 129.734375 3.796875 C 129.476562 3.683594 129.234375 3.570312 129.023438 3.460938 C 131.304688 3.183594 132.660156 3.878906 134 4.78125 C 135.375 5.136719 136.734375 5.558594 138.089844 5.960938 C 138.605469 5.929688 139.09375 5.878906 139.074219 5.378906 C 153.894531 9.996094 168.035156 17.96875 180.074219 28.6875 C 183.160156 31.445312 186.101562 34.382812 188.898438 37.480469 C 190.835938 39.5 192.726562 41.566406 194.554688 43.710938 C 194.878906 44.277344 195.265625 44.890625 195.636719 45.488281 C 197.464844 46.617188 199.5625 51.054688 201.390625 53.378906 C 201.066406 53.203125 200.710938 52.863281 200.371094 52.445312 C 203.589844 57.382812 206.480469 62.5625 209.019531 67.984375 C 209.179688 68.617188 209.40625 69.308594 209.601562 69.972656 C 210.957031 71.425781 211.8125 75.636719 212.847656 78.414062 C 212.378906 76.523438 212.25 74.734375 212.816406 74.28125 C 214.753906 76.410156 214.527344 80.816406 215.175781 83.414062 C 214.382812 82.867188 213.511719 80.898438 212.960938 78.914062 C 211.765625 77.558594 210.988281 73.472656 209.792969 70.699219 C 209.875 70.941406 209.921875 71.148438 210.003906 71.390625 C 210.328125 72.601562 210.683594 73.894531 211.039062 75.234375 C 211.714844 77.914062 212.75 80.71875 213.363281 83.804688 C 214.011719 86.871094 214.867188 90.035156 215.320312 93.324219 C 215.742188 96.617188 216.273438 99.941406 216.402344 103.25 C 216.566406 105.882812 216.613281 108.511719 216.566406 111.144531 C 216.566406 111.160156 216.566406 111.191406 216.566406 111.207031 C 216.566406 111.304688 216.566406 111.402344 216.566406 111.484375 C 216.566406 111.820312 216.566406 112.175781 216.546875 112.515625 C 216.5 123.878906 214.949219 135.304688 211.34375 146.265625 C 204.058594 168.972656 189.300781 189.761719 168.246094 203.398438 C 168.277344 203.011719 168.488281 202.609375 168.925781 202.15625 C 164.253906 205.386719 159.308594 208.257812 154.105469 210.710938 C 152.617188 211.566406 151.132812 212.421875 149.675781 213.261719 C 148.5625 213.875 147.480469 214.503906 146.347656 215.035156 C 145.21875 215.535156 144.070312 216.019531 142.921875 216.472656 C 143.699219 215.535156 145.265625 214.746094 146.945312 213.875 C 147.171875 213.746094 147.398438 213.632812 147.625 213.503906 C 145.832031 214.199219 144.039062 214.859375 142.195312 215.457031 C 142.40625 214.875 142.988281 214.34375 144.394531 213.90625 C 144.296875 213.921875 144.199219 213.957031 144.101562 213.988281 C 143.457031 214.214844 142.808594 214.457031 142.128906 214.664062 C 140.207031 215.3125 138.234375 215.972656 136.328125 216.617188 C 134.390625 217.152344 132.5 217.585938 130.816406 217.957031 C 132.613281 217.246094 134.617188 216.632812 136.734375 215.890625 C 134.148438 216.601562 131.625 217.378906 129.121094 218.214844 C 126.617188 218.878906 124.144531 219.539062 121.71875 220.183594 C 120.492188 220.476562 119.28125 220.816406 118.050781 221.023438 C 116.824219 221.21875 115.59375 221.394531 114.382812 221.523438 C 115.386719 220.816406 117.082031 220.460938 118.957031 220.054688 C 120.816406 219.589844 122.851562 219.167969 124.515625 218.621094 C 121.914062 218.75 118.148438 219.378906 114.09375 219.570312 C 112.070312 219.699219 109.988281 219.832031 107.984375 219.960938 C 105.980469 219.976562 104.039062 219.910156 102.3125 219.832031 C 104.914062 219.523438 107.855469 219.492188 111.039062 219.152344 C 114.207031 218.828125 117.613281 218.847656 121.058594 218.28125 C 118.34375 217.230469 114.398438 216.746094 110.488281 216.457031 C 109.519531 216.375 108.53125 216.296875 107.578125 216.214844 C 106.625 216.054688 105.703125 215.910156 104.816406 215.761719 C 103.039062 215.441406 101.453125 215.054688 100.210938 214.519531 C 100.890625 214.8125 101.097656 214.34375 100.855469 213.730469 C 98.820312 213.808594 95.410156 213.003906 93.230469 212.921875 C 94.488281 212.324219 97.980469 213.132812 100.679688 213.40625 C 100.355469 212.890625 99.757812 212.339844 98.820312 212.050781 C 98.660156 211.984375 98.511719 211.9375 98.367188 211.890625 C 98.578125 211.875 98.757812 211.792969 98.851562 211.648438 C 98.609375 212.003906 95.523438 209.226562 98.289062 209.628906 C 94.925781 208.855469 91.824219 207.886719 88.914062 206.886719 C 86.054688 205.738281 83.402344 204.417969 80.851562 203.125 C 83.710938 203.738281 88.300781 206.144531 93.019531 207.128906 C 97.671875 208.386719 102.246094 208.386719 103.960938 206.09375 C 102.296875 204.644531 100.597656 203.320312 98.289062 202.140625 C 95.992188 200.832031 93.003906 199.960938 88.753906 199.15625 C 88.542969 198.378906 88.785156 197.476562 87.863281 196.878906 C 88.105469 196.265625 90.546875 198.089844 92.613281 197.945312 C 93.359375 197.816406 93.488281 197.167969 94.8125 197.523438 C 94.765625 197.316406 94.636719 197.121094 94.503906 196.945312 C 93.019531 196.78125 90.984375 196.539062 89.542969 196.492188 C 89.449219 195.78125 90.238281 195.878906 91.0625 196.007812 C 88.65625 195.136719 86.828125 194.8125 84.972656 194.328125 C 83.097656 193.910156 81.109375 193.601562 78.441406 192.78125 C 79.039062 192.117188 77.8125 191.699219 76.84375 191.246094 C 79.28125 191.796875 82.773438 192.554688 86.28125 193.796875 C 88.027344 194.425781 89.882812 194.828125 91.597656 195.410156 C 92.355469 195.636719 93.101562 195.894531 93.828125 196.152344 C 93.214844 195.636719 92.46875 195.167969 91.921875 194.621094 C 93.4375 194.28125 97.269531 198.074219 97.996094 194.847656 C 98.0625 193.714844 95.378906 193.683594 93.550781 193.296875 C 93.8125 192.457031 95.328125 192.746094 96.929688 193.070312 C 96.769531 191.859375 96.152344 190.988281 96.285156 190.375 C 95.152344 190.214844 94.117188 189.921875 93.746094 189.714844 C 93.925781 189.421875 94.441406 189.453125 94.523438 189.066406 C 86.554688 187.339844 94.78125 188.421875 97.429688 189.585938 C 97.445312 189.585938 97.464844 189.566406 97.496094 189.566406 C 96.039062 188.210938 95.167969 187.613281 94.246094 187.113281 C 93.324219 186.648438 92.371094 186.179688 90.917969 185.03125 C 91.453125 184.742188 92.40625 185.082031 93.40625 185.484375 C 94.425781 185.839844 95.476562 186.324219 96.121094 186.535156 C 96.800781 186.257812 97.464844 185.96875 98.09375 185.664062 C 97.203125 184.257812 93.34375 185.289062 92.921875 184.339844 C 93.101562 183.804688 93.261719 183.273438 92.613281 183.03125 C 94.085938 182.691406 96.105469 184.808594 98.789062 184.984375 C 98.738281 184.433594 96.507812 183.855469 98.902344 184.210938 C 98.238281 183.320312 95.425781 183.417969 94.472656 182.660156 C 95.816406 182.515625 98.675781 182.613281 100.808594 182.917969 C 101.324219 181.933594 99.757812 181.964844 99.289062 181.480469 C 98.09375 181.207031 97.480469 181.5 97.429688 182.371094 C 95.621094 180.886719 95.492188 179.5625 93.585938 178.835938 C 92.890625 177.558594 96.074219 178.691406 94.375 177.816406 C 95.328125 177.171875 97.609375 177.558594 99.9375 178.078125 C 100.515625 178.207031 101.097656 178.320312 101.664062 178.429688 C 102.230469 178.496094 102.78125 178.527344 103.296875 178.542969 C 104.054688 178.5625 104.703125 178.527344 105.1875 178.367188 C 103.230469 178.238281 101.292969 178.011719 99.335938 177.722656 C 99.128906 177.6875 98.902344 177.65625 98.691406 177.625 C 98.09375 177.527344 97.511719 177.414062 96.914062 177.300781 C 96.316406 177.1875 95.71875 177.074219 95.121094 176.960938 C 94.910156 176.914062 94.714844 176.867188 94.503906 176.816406 C 90.125 175.832031 85.910156 174.429688 81.902344 172.636719 C 81.804688 172.589844 81.707031 172.539062 81.609375 172.507812 C 80.722656 172.105469 79.832031 171.683594 78.976562 171.25 C 78.683594 171.105469 78.410156 170.957031 78.136719 170.8125 C 77.472656 170.472656 76.808594 170.121094 76.164062 169.75 C 75.710938 169.488281 75.273438 169.230469 74.824219 168.957031 C 74.371094 168.683594 73.902344 168.410156 73.449219 168.132812 C 73.289062 168.039062 73.125 167.941406 72.980469 167.84375 C 72.867188 168.003906 73.320312 168.390625 74.449219 168.988281 C 73.15625 169.472656 71.25 167.035156 70.460938 166.34375 C 68.730469 168.230469 72.625 168.796875 73.15625 170.070312 C 70.460938 169.585938 68.601562 166.957031 66.402344 166.359375 C 66.902344 166.972656 68.679688 168.457031 70.703125 169.859375 C 69.523438 169.378906 68.003906 169.070312 66.546875 168.585938 C 66.207031 168.472656 65.871094 168.34375 65.5625 168.183594 C 66.46875 169.039062 67.308594 169.894531 67.96875 170.425781 C 67.777344 170.441406 67.582031 170.394531 67.386719 170.363281 C 67.421875 170.425781 67.484375 170.472656 67.519531 170.539062 C 64.449219 170.457031 62.703125 166.390625 59.097656 165.359375 C 58.792969 166.441406 61.539062 166.441406 61.523438 167.910156 C 61.828125 167.441406 62.878906 168.261719 63.960938 169.378906 C 65.046875 170.507812 66.355469 171.75 66.871094 172.476562 C 63.769531 170.78125 61.78125 168.988281 59.597656 167.328125 C 58.484375 166.519531 57.449219 165.585938 56.300781 164.566406 C 55.121094 163.582031 53.832031 162.5 52.34375 161.257812 C 55.269531 164.308594 56.511719 167.519531 60.421875 171.105469 C 59.375 168.28125 61.957031 171.894531 62.054688 172.976562 C 62.992188 172.621094 64.429688 173.523438 66.015625 174.769531 C 65.789062 175.074219 65.222656 174.589844 64.785156 174.398438 C 69.859375 179.496094 77.667969 182.820312 86.847656 186.371094 C 85.230469 186.066406 83.628906 185.679688 82.046875 185.257812 C 80.480469 184.773438 78.992188 184.113281 77.503906 183.5 C 77.003906 183.304688 76.535156 183.078125 76.066406 182.871094 C 77.070312 183.46875 77.894531 184.0625 77.972656 184.4375 C 78.878906 184.902344 79.121094 184.484375 79.878906 184.757812 C 80.203125 185.308594 78.910156 185.128906 77.390625 184.695312 C 75.871094 184.273438 74.257812 183.355469 73.820312 182.933594 C 74.0625 182.707031 74.5625 182.871094 74.726562 182.515625 C 70.894531 180.546875 71.25 180.511719 72.753906 181.175781 C 71.558594 180.496094 70.410156 179.789062 69.261719 179.109375 C 67.96875 178.382812 66.824219 177.511719 65.675781 176.703125 C 64.996094 176.347656 64.316406 176.011719 63.65625 175.625 C 62.28125 174.75 61.003906 173.734375 59.730469 172.75 C 58.953125 172.183594 58.242188 171.589844 57.546875 170.957031 C 57.125 170.699219 56.722656 170.441406 56.300781 170.214844 C 57.886719 171.847656 59.355469 173.363281 60.859375 174.734375 C 61.699219 175.1875 62.621094 175.832031 63.6875 176.574219 C 63.542969 176.671875 63.398438 176.703125 63.25 176.738281 C 63.269531 176.753906 63.285156 176.769531 63.316406 176.785156 C 64.511719 177.722656 65.675781 178.625 66.839844 179.527344 C 68.066406 180.351562 69.34375 181.109375 70.636719 181.917969 C 75.808594 185.113281 81.980469 187.921875 91.03125 190.34375 C 89.027344 190.359375 86.910156 189.875 84.730469 189.214844 C 82.546875 188.582031 80.269531 187.839844 78.117188 186.792969 C 73.691406 184.96875 69.570312 182.546875 65.59375 181.160156 C 65.222656 180.675781 65.449219 180.609375 65.660156 180.382812 C 65.515625 180.289062 65.351562 180.207031 65.207031 180.109375 C 63.25 178.933594 61.265625 177.640625 59.453125 176.058594 C 58.515625 175.347656 57.613281 174.605469 56.722656 173.847656 C 57.207031 174.671875 57.515625 175.558594 57.902344 175.171875 C 59.097656 176.71875 56.464844 175.640625 55.65625 174.832031 C 55.640625 175.734375 56.578125 177.1875 54.636719 176.042969 C 54.203125 176.882812 55.671875 178.042969 55.703125 178.996094 C 56.269531 179.175781 56.789062 179.398438 57.546875 179.933594 L 59.792969 181.480469 C 61.570312 182.449219 63.558594 183.597656 65.53125 184.9375 C 67.050781 186 68.746094 186.855469 70.25 187.875 C 71.800781 188.824219 73.207031 189.890625 74.515625 190.699219 C 74.871094 191.070312 70.539062 189.164062 68.019531 188.390625 C 68.035156 188.210938 68.101562 188.097656 68.195312 188.035156 C 65.273438 187 62.621094 185.097656 58.679688 182.191406 C 58.53125 182.09375 58.386719 182.03125 58.242188 181.933594 C 58.257812 181.917969 58.257812 181.902344 58.273438 181.902344 C 58.160156 181.820312 58.0625 181.757812 57.949219 181.660156 C 58.082031 181.722656 58.195312 181.773438 58.324219 181.835938 C 58.695312 181.480469 58.289062 181.046875 57.726562 180.578125 C 54.296875 179.175781 51.859375 177.414062 49.242188 175.640625 C 47.996094 174.636719 46.71875 173.605469 45.3125 172.492188 C 43.890625 171.378906 42.292969 170.214844 40.59375 168.746094 C 40.707031 166.179688 35.890625 164.292969 33.953125 160.515625 C 34.277344 161.066406 34.859375 163.113281 35.84375 165.003906 C 36.394531 165.9375 37.023438 166.828125 37.71875 167.472656 C 37.523438 167.054688 37.425781 166.648438 37.492188 166.246094 C 38.023438 167.070312 38.625 167.761719 39.238281 168.375 C 39.449219 168.425781 39.640625 168.457031 39.851562 168.441406 C 40.046875 168.8125 40.046875 168.988281 39.964844 169.085938 C 41.453125 170.472656 42.890625 171.570312 43.503906 173.25 C 43.003906 172.28125 40.644531 170.765625 39.027344 169.167969 C 38.996094 169.167969 38.960938 169.183594 38.945312 169.183594 C 40.546875 170.570312 40.871094 170.765625 40.949219 172.203125 C 41.839844 172.910156 41.046875 171.28125 42.03125 172.183594 C 42.46875 173.347656 42.839844 174.429688 44.714844 176.867188 C 45.183594 177.335938 45.621094 177.816406 46.105469 178.269531 C 46.429688 177.929688 46.007812 177.398438 45.492188 176.816406 C 48.304688 179.753906 51.421875 182.5 54.785156 185.082031 C 54.605469 184.773438 54.574219 184.46875 54.816406 184.210938 C 56.109375 185.273438 57.546875 186.144531 58.953125 187.066406 C 58.613281 187.082031 57.402344 186.742188 56.320312 186.242188 C 63.671875 191.632812 72.238281 196.183594 82.078125 199.6875 C 82.0625 200.851562 78.378906 198.1875 78.328125 199.316406 C 80.398438 200.945312 86.003906 202.011719 89.59375 202.851562 C 90.578125 201.609375 86.878906 201.722656 85.457031 201.140625 C 83.808594 200.171875 91.453125 201.835938 91.902344 202.527344 C 90.660156 203.285156 88.105469 202.996094 85.230469 202.351562 C 82.402344 201.527344 79.265625 200.316406 76.632812 199.574219 C 77.117188 199.398438 77.585938 199.21875 77.730469 198.6875 C 77.035156 198.476562 76.339844 198.21875 75.664062 197.929688 C 75.339844 198.75 75.808594 198.832031 73.5625 199.1875 C 72.996094 199.074219 72.6875 198.75 72.496094 198.398438 C 72.15625 198.265625 71.816406 198.136719 71.460938 197.976562 C 69.765625 197.234375 67.953125 195.976562 66.644531 195.570312 C 67.839844 195.605469 68.730469 195.910156 69.601562 196.332031 C 69.539062 195.941406 69.730469 195.636719 68.4375 194.828125 C 67.015625 195.105469 64.753906 194.214844 62.25 192.925781 C 59.730469 191.390625 57.015625 189.40625 54.671875 188.019531 C 54.992188 187.988281 55.300781 187.9375 55.558594 187.808594 C 55.011719 187.40625 54.460938 187 53.910156 186.597656 C 53.699219 186.953125 53.539062 187.035156 51.828125 186.855469 C 50.03125 185.96875 51.777344 183.449219 49.726562 184.695312 C 48.238281 183.175781 48.886719 183.097656 48.773438 182.5 C 46.621094 180.804688 44.617188 179.285156 43.019531 178.207031 C 43.246094 178.171875 43.359375 178.09375 43.40625 177.996094 C 41.855469 176.527344 40.078125 174.6875 38.414062 172.523438 C 37.425781 171.296875 36.425781 170.054688 35.421875 168.796875 C 35.40625 168.78125 35.390625 168.765625 35.390625 168.746094 C 35.292969 169.152344 35.164062 169.652344 34.324219 169.054688 C 34.066406 169.507812 34.375 169.972656 34.824219 170.410156 C 34.792969 170.34375 34.746094 170.28125 34.679688 170.199219 C 35.488281 170.328125 35.890625 170.894531 36.214844 171.570312 C 36.507812 171.847656 36.667969 172.074219 36.507812 172.25 C 36.8125 173.023438 37.136719 173.847656 37.78125 174.445312 C 36.699219 174.589844 36.375 173.363281 36.101562 172.445312 C 36.085938 172.445312 36.085938 172.460938 36.070312 172.460938 C 35.761719 172.089844 35.503906 171.832031 35.277344 171.605469 C 35.214844 171.667969 35.132812 171.734375 35.035156 171.847656 C 34.875 171.605469 34.859375 171.425781 34.890625 171.25 C 34.035156 170.539062 33.695312 170.699219 33.097656 170.023438 C 32.660156 168.941406 32.871094 168.152344 33.726562 167.648438 C 32.433594 165.730469 31.578125 165.472656 30.609375 165.308594 C 33.453125 167.375 29.929688 165.84375 32.464844 168.585938 C 32.011719 168.699219 31.320312 167.585938 30.914062 167.859375 C 31.433594 169.78125 34.484375 172.78125 35.554688 174.878906 C 33.242188 172.378906 30.1875 169.199219 28.023438 166.246094 C 25.777344 163.355469 23.804688 161.128906 23.109375 160.984375 C 22.140625 161.128906 21.75 157.078125 23.417969 159.902344 C 23.0625 158.742188 19.410156 154.914062 18.117188 151.234375 C 18.019531 152.367188 18.34375 153.738281 16.984375 152.609375 C 18.003906 155.980469 18.132812 154.964844 19.8125 157.402344 C 19.34375 157.175781 18.859375 156.964844 18.390625 157.238281 C 19.972656 159.371094 20.054688 158.257812 20.28125 160.773438 C 15.402344 152.785156 11.070312 142.117188 8.582031 130.980469 C 7.175781 125.558594 6.625 119.859375 6.1875 114.421875 C 6.109375 111.710938 6.078125 109.03125 6.078125 106.464844 C 6.027344 103.882812 6.382812 101.429688 6.546875 99.070312 C 5.945312 98.25 6.753906 97.28125 7.351562 96.117188 C 7.480469 95.085938 7.644531 94.085938 7.804688 93.066406 C 7.433594 92.890625 6.609375 94.101562 7.191406 91.808594 C 7.644531 91.035156 8.113281 89.808594 8.597656 88.324219 C 8.644531 88.082031 8.679688 87.839844 8.726562 87.597656 C 9.355469 84.949219 10.019531 82.367188 10.683594 79.882812 C 11.296875 77.378906 12.28125 75.085938 13.058594 72.859375 C 12.652344 71.828125 13.914062 71.070312 14.835938 69.972656 C 15.175781 69.132812 15.515625 68.277344 15.871094 67.4375 C 15.628906 67.035156 14.367188 68.164062 15.5625 66.035156 C 16.273438 65.339844 17.128906 64.128906 18.082031 62.628906 C 18.277344 62.242188 18.457031 61.835938 18.664062 61.464844 C 19.636719 59.59375 20.554688 57.785156 21.476562 56.125 C 22.480469 54.527344 23.433594 53.058594 24.289062 51.765625 C 20.992188 56.089844 18.566406 60.449219 16.097656 64.675781 C 13.980469 69.082031 11.730469 73.394531 10.246094 78.285156 C 11.621094 71.535156 14.367188 65.289062 17.4375 59.496094 Z M 71.347656 197.332031 C 71.589844 197.445312 71.847656 197.558594 72.109375 197.671875 C 71.960938 197.234375 71.816406 196.992188 71.347656 197.332031 Z M 49.144531 166.535156 C 49 166.390625 48.851562 166.230469 48.691406 166.085938 C 48.609375 166.359375 48.625 166.617188 48.675781 166.890625 C 48.738281 166.730469 48.949219 166.699219 49.144531 166.535156 Z M 141.257812 10.222656 C 142.210938 10.511719 143.117188 10.785156 143.925781 10.964844 C 143.117188 10.625 142.339844 10.320312 141.566406 10.011719 C 141.371094 10.078125 141.257812 10.140625 141.257812 10.222656 Z M 32.820312 158.917969 C 31.996094 158.0625 31.191406 156.980469 30.382812 155.964844 C 30.316406 156.011719 30.269531 156.027344 30.203125 156.109375 C 31.058594 157.804688 32.257812 159.773438 33.113281 159.320312 C 33.03125 159.207031 32.917969 159.0625 32.820312 158.917969 Z M 25.664062 147.378906 C 25.921875 147.699219 26.195312 147.976562 26.503906 148.167969 C 26.261719 147.652344 26.019531 147.085938 25.808594 146.363281 C 25.679688 146.636719 25.644531 146.992188 25.664062 147.378906 Z M 26.164062 148.960938 C 26.195312 149.007812 26.210938 149.058594 26.226562 149.121094 C 26.582031 149.636719 26.828125 150.023438 27.019531 150.363281 C 27.085938 150.445312 27.132812 150.542969 27.214844 150.621094 C 28.410156 152.140625 29.914062 153.527344 30.574219 154.269531 C 29.445312 151.574219 28.152344 150.863281 27.050781 149.152344 C 26.828125 149.167969 26.4375 148.925781 26.164062 148.960938 Z M 26.9375 159.984375 C 27.84375 161.402344 28.585938 162.40625 28.394531 161.453125 C 27.34375 160.160156 26.890625 158.886719 26.503906 157.871094 C 26.082031 156.867188 25.664062 156.125 24.691406 155.804688 C 25.179688 156.578125 26.097656 158.515625 26.9375 159.984375 Z M 27.132812 163.148438 L 30.105469 167.585938 L 30.753906 167.117188 C 29.523438 165.859375 28.070312 161.824219 27.132812 163.148438 Z M 66.304688 194.605469 C 66.371094 194.554688 66.371094 194.507812 66.417969 194.457031 C 65.722656 194.199219 64.898438 193.828125 63.960938 193.328125 C 61.941406 192.28125 59.421875 190.8125 56.949219 188.921875 C 58.96875 190.875 63.382812 193.039062 66.304688 194.605469 Z M 54.863281 172.636719 C 55.011719 172.589844 55.15625 172.605469 55.285156 172.621094 C 53.101562 170.734375 51.003906 168.875 48.851562 167.425781 C 49.222656 168.199219 50.03125 168.988281 51.003906 169.828125 C 51.777344 170.472656 52.617188 171.21875 53.523438 171.910156 C 54.429688 172.605469 55.332031 173.347656 56.09375 174.1875 C 56.320312 173.765625 55.414062 173.1875 54.863281 172.636719 Z M 65.820312 179.414062 C 65.515625 179.320312 65.125 179.125 64.671875 178.882812 C 65.046875 179.140625 65.433594 179.398438 65.820312 179.65625 C 65.820312 179.578125 65.835938 179.511719 65.820312 179.414062 Z M 64.496094 168.132812 C 64.011719 167.601562 63.511719 167.070312 62.960938 166.550781 C 63.105469 167.183594 63.738281 167.648438 64.496094 168.132812 Z M 63.023438 166.132812 C 63.007812 166.101562 62.976562 166.085938 62.960938 166.050781 C 62.960938 166.066406 62.960938 166.085938 62.960938 166.101562 C 62.976562 166.101562 63.007812 166.117188 63.023438 166.132812 Z M 210.941406 80.671875 C 210.292969 78.621094 209.648438 76.992188 209.582031 77.167969 C 209.582031 77.1875 209.582031 77.203125 209.582031 77.21875 C 210.148438 78.703125 210.585938 79.847656 210.941406 80.671875 Z M 201.003906 56.574219 C 200.824219 56.058594 200.195312 54.960938 199.207031 53.574219 C 200.050781 55.027344 200.628906 56.011719 201.019531 56.609375 C 201.003906 56.589844 201.003906 56.589844 201.003906 56.574219 Z M 196.023438 46.117188 C 196.105469 46.230469 196.15625 46.34375 196.234375 46.457031 C 196.753906 47.164062 197.253906 47.910156 197.753906 48.617188 C 197.1875 47.730469 196.605469 46.859375 196.023438 46.117188 Z M 104.429688 3.925781 C 104.765625 4.410156 106.011719 4.667969 107.804688 4.796875 C 109.324219 4.863281 111.246094 4.960938 113.382812 5.074219 C 113.945312 5.058594 114.464844 5.007812 114.867188 4.910156 C 114.65625 4.992188 114.542969 5.074219 114.429688 5.136719 C 115.320312 5.1875 116.226562 5.25 117.144531 5.316406 C 116.953125 4.734375 120.523438 5.152344 125.324219 5.960938 C 126.390625 6.171875 127.519531 6.445312 128.683594 6.71875 C 130.703125 7.058594 132.464844 7.542969 133.90625 8.058594 C 134.308594 8.15625 134.710938 8.269531 135.117188 8.367188 C 135.292969 8.414062 135.472656 8.460938 135.648438 8.527344 C 134.761719 7.558594 138.445312 9.253906 140.933594 9.769531 C 139.738281 9.300781 138.558594 8.832031 137.425781 8.414062 C 135.359375 7.671875 133.339844 7.171875 131.398438 6.621094 C 129.523438 6.136719 127.699219 5.636719 125.921875 5.28125 C 125.4375 5.21875 124.984375 5.152344 124.484375 5.089844 C 124.484375 5.074219 124.5 5.074219 124.515625 5.058594 C 123.09375 4.832031 121.6875 4.605469 120.28125 4.425781 C 118.472656 4.21875 116.675781 3.941406 114.835938 3.863281 C 112.992188 3.8125 111.132812 3.78125 109.195312 3.796875 C 107.660156 3.75 106.058594 3.8125 104.429688 3.925781 Z M 14.058594 61.015625 C 14.691406 59.367188 17.164062 56.414062 16.582031 55.65625 C 15.902344 56.65625 15.320312 56.574219 14.640625 57.480469 C 15.773438 57.6875 13.445312 60.433594 14.058594 61.015625 Z M 77.488281 197.410156 C 78.699219 197.652344 80.074219 197.652344 80.414062 197.558594 C 78.8125 197.039062 77.199219 196.574219 75.679688 195.863281 C 75.308594 196.589844 76.277344 197.167969 77.488281 197.410156 Z M 99 204.433594 C 96.976562 204.609375 95.507812 204.320312 94.183594 204.027344 C 92.855469 203.691406 91.675781 203.433594 90.09375 203.820312 C 91.453125 203.867188 93.519531 204.609375 95.363281 204.882812 C 97.203125 205.175781 98.773438 205.257812 99 204.433594 Z M 77.425781 176.011719 C 80.367188 176.785156 82.707031 179.835938 84.777344 179.078125 C 82.886719 178.269531 79.507812 175.816406 77.425781 176.011719 Z M 90.207031 180.804688 C 88.738281 180.691406 85.777344 178.59375 85.601562 180.175781 C 87.539062 179.769531 89.414062 182.015625 90.207031 180.804688 Z M 46.542969 202.59375 C 48.449219 203.804688 50.597656 205.515625 52.796875 207.046875 C 54.992188 208.546875 57.351562 209.679688 59.339844 210.097656 C 57.257812 208.886719 54.621094 207.386719 52.390625 205.738281 C 50.097656 204.160156 47.996094 202.851562 46.542969 202.59375 Z M 7.578125 150.914062 C 8 150.636719 8.304688 150.347656 7.707031 149.039062 L 6.609375 149.460938 C 7.257812 151.492188 8.144531 153.332031 8.96875 153.125 C 8.515625 152.027344 8.046875 151.460938 7.578125 150.914062 Z M 67.242188 205.191406 C 69.667969 205.933594 73.496094 208.082031 75.292969 208.046875 C 78.023438 209.097656 80.558594 209.855469 81.527344 209.484375 C 79.765625 208.9375 77.164062 207.96875 74.597656 207.046875 C 72.042969 206.109375 69.601562 204.949219 67.890625 204.546875 C 68.8125 204.964844 69.972656 205.578125 71.25 206.222656 C 71.671875 206.449219 72.125 206.660156 72.558594 206.886719 C 70.476562 205.980469 68.324219 204.996094 67.242188 205.191406 Z M 52.40625 181.402344 C 51.226562 180.222656 50.210938 179.414062 49.484375 178.867188 C 48.773438 178.285156 48.304688 178.042969 48.15625 178.09375 C 47.882812 178.15625 48.917969 179.527344 52.40625 181.402344 Z M 41.613281 179.15625 C 44.796875 181.757812 48.835938 185.179688 53.101562 188.339844 C 53.085938 188.097656 53.054688 187.875 52.652344 187.582031 C 54.542969 187.40625 54.960938 189.9375 56.753906 190.890625 C 56.738281 190.890625 56.722656 190.890625 56.707031 190.90625 C 58.339844 192.003906 59.972656 193.054688 61.585938 193.941406 C 60.292969 193.667969 58.5 192.601562 56.640625 191.34375 C 56.449219 191.214844 56.269531 191.085938 56.078125 190.957031 C 55.800781 190.890625 55.542969 190.699219 55.332031 190.457031 C 53.894531 189.453125 52.503906 188.421875 51.324219 187.566406 L 46.300781 183.5625 C 44.683594 182.160156 43.164062 180.640625 41.613281 179.15625 Z M 53.636719 188.746094 C 53.976562 188.988281 54.316406 189.230469 54.65625 189.472656 C 54.28125 188.859375 53.976562 188.390625 53.636719 188.746094 Z M 3.425781 102.445312 C 3.457031 100.863281 3.585938 100.152344 3.828125 100.183594 C 3.652344 101.28125 3.492188 102.445312 3.3125 103.65625 C 3.199219 103.527344 3.117188 103.363281 2.972656 103.25 C 2.859375 106.140625 2.570312 109.351562 2.617188 112.742188 C 2.585938 116.132812 2.472656 119.714844 2.828125 123.234375 C 3.085938 126.769531 3.378906 130.300781 4.152344 133.515625 C 4.863281 136.742188 5.527344 139.792969 6.675781 142.246094 C 6.269531 139.742188 5.832031 137.097656 5.414062 134.417969 C 5.800781 136.289062 6.238281 138.257812 6.804688 140.277344 C 7.660156 143.570312 8.46875 147.039062 9.730469 150.363281 C 10.890625 153.707031 12.105469 157.046875 13.671875 159.953125 C 15.191406 162.890625 16.628906 165.648438 18.375 167.730469 C 14.300781 158.691406 9.292969 147.925781 7.742188 138.839844 C 8 139.421875 8.210938 140.40625 8.597656 140.308594 C 7.59375 139.082031 7.078125 136.984375 6.753906 135.0625 C 6.433594 133.304688 6.027344 131.769531 4.960938 131.191406 C 4.878906 130.59375 4.800781 129.996094 4.71875 129.398438 C 4.785156 129.640625 4.863281 129.882812 4.929688 130.109375 C 4.363281 127.734375 4.492188 127.285156 5.398438 128.347656 C 4.671875 126.089844 4.394531 123.394531 4.089844 120.539062 C 3.941406 119.117188 3.828125 117.648438 3.734375 116.164062 C 3.71875 115.792969 3.71875 115.40625 3.71875 115.035156 C 3.734375 113.855469 3.796875 112.695312 3.894531 111.5625 C 3.992188 112.195312 3.941406 113.195312 4.332031 113.210938 C 3.683594 111.757812 3.71875 109.59375 3.910156 107.65625 C 3.976562 106.785156 4.007812 105.964844 3.941406 105.253906 C 3.976562 104.589844 3.992188 103.882812 4.054688 103.25 C 4.136719 102.363281 4.203125 101.507812 4.265625 100.667969 C 4.296875 100.71875 4.316406 100.765625 4.347656 100.832031 C 4.332031 100.363281 4.347656 99.863281 4.363281 99.378906 C 4.378906 99.023438 4.394531 98.683594 4.429688 98.34375 C 4.558594 96.632812 4.832031 94.828125 5.121094 92.953125 C 5.347656 91.535156 5.625 90.097656 5.914062 88.644531 C 6.207031 87.191406 6.675781 85.773438 7.0625 84.351562 C 7.0625 84.335938 7.078125 84.320312 7.078125 84.304688 C 7.144531 84.625 7.273438 84.964844 7.433594 85.125 C 8.175781 81.929688 9.292969 78.816406 10.292969 75.667969 C 10.132812 73.699219 8.175781 81.332031 7.433594 83.433594 C 7.386719 83.433594 7.367188 83.496094 7.320312 83.511719 C 8.0625 80.980469 8.742188 78.476562 9.566406 76.265625 C 10.472656 73.796875 11.265625 71.554688 11.78125 69.679688 C 10.890625 71.585938 9.808594 74.007812 8.660156 76.703125 C 7.613281 79.429688 6.691406 82.496094 5.769531 85.5625 C 5.285156 87.097656 4.929688 88.644531 4.671875 90.210938 C 4.378906 91.761719 4.121094 93.277344 3.910156 94.730469 C 3.71875 96.183594 3.492188 97.570312 3.441406 98.863281 C 3.363281 100.183594 3.378906 101.378906 3.425781 102.445312 Z M 56.867188 198.898438 C 55.300781 197.914062 53.039062 196.296875 50.808594 194.75 C 48.578125 193.183594 46.527344 191.441406 44.972656 190.601562 C 45.75 191.246094 46.71875 192.132812 47.785156 193.085938 C 48.835938 194.070312 50 195.054688 51.210938 195.894531 C 53.570312 197.621094 55.835938 199.007812 56.867188 198.898438 Z M 0.921875 94.488281 C 0.777344 95.683594 0.664062 96.910156 0.613281 98.085938 C 0.628906 99.28125 0.679688 100.410156 0.726562 101.378906 C 0.695312 100.167969 0.757812 98.925781 0.953125 97.730469 C 1.179688 96.539062 1.453125 95.359375 1.714844 94.246094 C 2.230469 92.035156 2.699219 90.097656 2.554688 88.710938 C 1.730469 89.902344 1.210938 92.097656 0.921875 94.488281 Z M 98.335938 211.855469 C 95.554688 210.890625 97.300781 211.96875 98.335938 211.855469 Z M 30.171875 38.046875 C 31.207031 36.609375 34.355469 34.414062 34 33.527344 C 33.082031 34.320312 32.546875 34.078125 31.65625 34.785156 C 32.675781 35.285156 29.71875 37.335938 30.171875 38.046875 Z M 87.167969 178.253906 C 85.488281 177.882812 82.886719 176.058594 81.820312 176.625 C 83.515625 177.800781 85.199219 178.464844 87.167969 178.253906 Z M 215.304688 80.882812 C 215.578125 81.914062 215.855469 82.914062 216.097656 83.851562 C 216.644531 85.722656 217.210938 87.339844 217.90625 88.417969 C 216.824219 84.738281 215.933594 80.347656 214.320312 77.78125 C 214.65625 78.832031 214.980469 79.863281 215.304688 80.882812 Z M 130.703125 219.183594 C 129.976562 220.523438 129.347656 221.863281 127.796875 222.898438 C 130.558594 222.816406 130.914062 221.929688 132.96875 221.507812 C 132.804688 220.28125 132.128906 219.457031 130.703125 219.183594 Z M 218.632812 111.660156 C 218.683594 108.980469 220.039062 104.800781 218.714844 102.234375 C 217.292969 102.863281 217.355469 110.160156 218.632812 111.660156 Z M 81.917969 207.484375 C 83 208.726562 88.640625 210.96875 90.949219 210.421875 C 88.476562 209.324219 83.613281 207.046875 81.917969 207.484375 Z M 206.59375 160.371094 C 205.753906 162.113281 204.960938 163.761719 204.203125 165.359375 C 203.378906 166.921875 202.601562 168.488281 201.859375 170.054688 C 202.878906 168.410156 203.960938 166.632812 205.058594 164.808594 C 206.0625 162.9375 207.078125 161.015625 208.097656 159.128906 C 210.164062 155.382812 211.492188 151.527344 212.203125 148.445312 C 211.183594 150.75 210.246094 152.882812 209.355469 154.867188 C 208.371094 156.835938 207.449219 158.660156 206.59375 160.371094 Z M 220.847656 106.496094 C 221.058594 108.773438 221.347656 111.015625 221.476562 113.210938 C 221.574219 115.421875 221.671875 117.550781 221.769531 119.632812 C 221.847656 117.195312 221.914062 114.742188 221.898438 112.339844 C 221.769531 109.933594 221.574219 107.5625 221.347656 105.253906 C 221.21875 104.105469 221.089844 102.976562 220.960938 101.863281 C 220.78125 100.75 220.539062 99.683594 220.3125 98.621094 C 219.84375 96.523438 219.3125 94.519531 218.730469 92.679688 C 219.601562 97.296875 220.492188 101.929688 220.847656 106.496094 Z M 220.847656 106.496094 " clip-rule="nonzero"/></clipPath><linearGradient x1="-10.356401" gradientTransform="matrix(-1.597329, -0.244857, 0.245168, -1.595306, 202.931363, 238.06099)" y1="68.556999" x2="146.460134" gradientUnits="userSpaceOnUse" y2="68.556999" id="0c9d588ebd"><stop stop-opacity="1" stop-color="rgb(97.299194%, 59.599304%, 49.798584%)" offset="0"/><stop stop-opacity="1" stop-color="rgb(97.299194%, 59.599304%, 49.798584%)" offset="0.0625"/><stop stop-opacity="1" stop-color="rgb(97.293091%, 59.735107%, 49.914551%)" offset="0.0703125"/><stop stop-opacity="1" stop-color="rgb(97.279358%, 60.02655%, 50.163269%)" offset="0.078125"/><stop stop-opacity="1" stop-color="rgb(97.265625%, 60.33783%, 50.428772%)" offset="0.0859375"/><stop stop-opacity="1" stop-color="rgb(97.250366%, 60.647583%, 50.694275%)" offset="0.09375"/><stop stop-opacity="1" stop-color="rgb(97.236633%, 60.958862%, 50.959778%)" offset="0.101562"/><stop stop-opacity="1" stop-color="rgb(97.221375%, 61.270142%, 51.226807%)" offset="0.109375"/><stop stop-opacity="1" stop-color="rgb(97.207642%, 61.581421%, 51.49231%)" offset="0.117187"/><stop stop-opacity="1" stop-color="rgb(97.193909%, 61.8927%, 51.757812%)" offset="0.125"/><stop stop-opacity="1" stop-color="rgb(97.17865%, 62.203979%, 52.023315%)" offset="0.132812"/><stop stop-opacity="1" stop-color="rgb(97.164917%, 62.515259%, 52.288818%)" offset="0.140625"/><stop stop-opacity="1" stop-color="rgb(97.151184%, 62.825012%, 52.554321%)" offset="0.148437"/><stop stop-opacity="1" stop-color="rgb(97.135925%, 63.136292%, 52.819824%)" offset="0.15625"/><stop stop-opacity="1" stop-color="rgb(97.122192%, 63.447571%, 53.085327%)" offset="0.164062"/><stop stop-opacity="1" stop-color="rgb(97.108459%, 63.75885%, 53.35083%)" offset="0.171875"/><stop stop-opacity="1" stop-color="rgb(97.093201%, 64.070129%, 53.616333%)" offset="0.179687"/><stop stop-opacity="1" stop-color="rgb(97.079468%, 64.381409%, 53.881836%)" offset="0.1875"/><stop stop-opacity="1" stop-color="rgb(97.065735%, 64.692688%, 54.147339%)" offset="0.195312"/><stop stop-opacity="1" stop-color="rgb(97.050476%, 65.002441%, 54.412842%)" offset="0.203125"/><stop stop-opacity="1" stop-color="rgb(97.036743%, 65.313721%, 54.678345%)" offset="0.210937"/><stop stop-opacity="1" stop-color="rgb(97.02301%, 65.625%, 54.945374%)" offset="0.21875"/><stop stop-opacity="1" stop-color="rgb(97.007751%, 65.936279%, 55.210876%)" offset="0.226562"/><stop stop-opacity="1" stop-color="rgb(96.994019%, 66.247559%, 55.476379%)" offset="0.234375"/><stop stop-opacity="1" stop-color="rgb(96.980286%, 66.558838%, 55.741882%)" offset="0.242187"/><stop stop-opacity="1" stop-color="rgb(96.965027%, 66.870117%, 56.007385%)" offset="0.25"/><stop stop-opacity="1" stop-color="rgb(96.951294%, 67.179871%, 56.272888%)" offset="0.257812"/><stop stop-opacity="1" stop-color="rgb(96.937561%, 67.49115%, 56.538391%)" offset="0.265625"/><stop stop-opacity="1" stop-color="rgb(96.922302%, 67.802429%, 56.803894%)" offset="0.273438"/><stop stop-opacity="1" stop-color="rgb(96.908569%, 68.113708%, 57.069397%)" offset="0.28125"/><stop stop-opacity="1" stop-color="rgb(96.894836%, 68.424988%, 57.3349%)" offset="0.289062"/><stop stop-opacity="1" stop-color="rgb(96.879578%, 68.736267%, 57.600403%)" offset="0.296875"/><stop stop-opacity="1" stop-color="rgb(96.865845%, 69.047546%, 57.865906%)" offset="0.304688"/><stop stop-opacity="1" stop-color="rgb(96.850586%, 69.3573%, 58.131409%)" offset="0.3125"/><stop stop-opacity="1" stop-color="rgb(96.836853%, 69.668579%, 58.396912%)" offset="0.320312"/><stop stop-opacity="1" stop-color="rgb(96.82312%, 69.979858%, 58.662415%)" offset="0.328125"/><stop stop-opacity="1" stop-color="rgb(96.807861%, 70.291138%, 58.929443%)" offset="0.335938"/><stop stop-opacity="1" stop-color="rgb(96.794128%, 70.602417%, 59.194946%)" offset="0.34375"/><stop stop-opacity="1" stop-color="rgb(96.780396%, 70.913696%, 59.460449%)" offset="0.351562"/><stop stop-opacity="1" stop-color="rgb(96.765137%, 71.224976%, 59.725952%)" offset="0.359375"/><stop stop-opacity="1" stop-color="rgb(96.751404%, 71.534729%, 59.991455%)" offset="0.367188"/><stop stop-opacity="1" stop-color="rgb(96.737671%, 71.846008%, 60.256958%)" offset="0.375"/><stop stop-opacity="1" stop-color="rgb(96.722412%, 72.157288%, 60.522461%)" offset="0.382812"/><stop stop-opacity="1" stop-color="rgb(96.708679%, 72.468567%, 60.787964%)" offset="0.390625"/><stop stop-opacity="1" stop-color="rgb(96.694946%, 72.779846%, 61.053467%)" offset="0.398438"/><stop stop-opacity="1" stop-color="rgb(96.679688%, 73.091125%, 61.31897%)" offset="0.40625"/><stop stop-opacity="1" stop-color="rgb(96.665955%, 73.402405%, 61.584473%)" offset="0.414062"/><stop stop-opacity="1" stop-color="rgb(96.652222%, 73.712158%, 61.849976%)" offset="0.421875"/><stop stop-opacity="1" stop-color="rgb(96.636963%, 74.023438%, 62.115479%)" offset="0.429688"/><stop stop-opacity="1" stop-color="rgb(96.62323%, 74.334717%, 62.380981%)" offset="0.4375"/><stop stop-opacity="1" stop-color="rgb(96.609497%, 74.645996%, 62.64801%)" offset="0.445312"/><stop stop-opacity="1" stop-color="rgb(96.594238%, 74.957275%, 62.913513%)" offset="0.453125"/><stop stop-opacity="1" stop-color="rgb(96.580505%, 75.268555%, 63.179016%)" offset="0.460938"/><stop stop-opacity="1" stop-color="rgb(96.566772%, 75.579834%, 63.444519%)" offset="0.46875"/><stop stop-opacity="1" stop-color="rgb(96.551514%, 75.889587%, 63.710022%)" offset="0.476562"/><stop stop-opacity="1" stop-color="rgb(96.537781%, 76.200867%, 63.975525%)" offset="0.484375"/><stop stop-opacity="1" stop-color="rgb(96.524048%, 76.512146%, 64.241028%)" offset="0.492188"/><stop stop-opacity="1" stop-color="rgb(96.508789%, 76.823425%, 64.506531%)" offset="0.5"/><stop stop-opacity="1" stop-color="rgb(96.495056%, 77.134705%, 64.772034%)" offset="0.507812"/><stop stop-opacity="1" stop-color="rgb(96.481323%, 77.445984%, 65.037537%)" offset="0.515625"/><stop stop-opacity="1" stop-color="rgb(96.466064%, 77.757263%, 65.30304%)" offset="0.523438"/><stop stop-opacity="1" stop-color="rgb(96.452332%, 78.067017%, 65.568542%)" offset="0.53125"/><stop stop-opacity="1" stop-color="rgb(96.437073%, 78.378296%, 65.834045%)" offset="0.539062"/><stop stop-opacity="1" stop-color="rgb(96.42334%, 78.689575%, 66.099548%)" offset="0.546875"/><stop stop-opacity="1" stop-color="rgb(96.409607%, 79.000854%, 66.365051%)" offset="0.554688"/><stop stop-opacity="1" stop-color="rgb(96.394348%, 79.312134%, 66.63208%)" offset="0.5625"/><stop stop-opacity="1" stop-color="rgb(96.380615%, 79.623413%, 66.897583%)" offset="0.570312"/><stop stop-opacity="1" stop-color="rgb(96.366882%, 79.934692%, 67.163086%)" offset="0.578125"/><stop stop-opacity="1" stop-color="rgb(96.351624%, 80.244446%, 67.428589%)" offset="0.585938"/><stop stop-opacity="1" stop-color="rgb(96.337891%, 80.555725%, 67.694092%)" offset="0.59375"/><stop stop-opacity="1" stop-color="rgb(96.324158%, 80.867004%, 67.959595%)" offset="0.601562"/><stop stop-opacity="1" stop-color="rgb(96.308899%, 81.178284%, 68.225098%)" offset="0.609375"/><stop stop-opacity="1" stop-color="rgb(96.295166%, 81.489563%, 68.490601%)" offset="0.617188"/><stop stop-opacity="1" stop-color="rgb(96.281433%, 81.800842%, 68.756104%)" offset="0.625"/><stop stop-opacity="1" stop-color="rgb(96.266174%, 82.112122%, 69.021606%)" offset="0.632812"/><stop stop-opacity="1" stop-color="rgb(96.252441%, 82.423401%, 69.287109%)" offset="0.640625"/><stop stop-opacity="1" stop-color="rgb(96.238708%, 82.733154%, 69.552612%)" offset="0.648438"/><stop stop-opacity="1" stop-color="rgb(96.22345%, 83.044434%, 69.818115%)" offset="0.65625"/><stop stop-opacity="1" stop-color="rgb(96.209717%, 83.355713%, 70.083618%)" offset="0.664062"/><stop stop-opacity="1" stop-color="rgb(96.195984%, 83.666992%, 70.350647%)" offset="0.671875"/><stop stop-opacity="1" stop-color="rgb(96.180725%, 83.978271%, 70.61615%)" offset="0.679688"/><stop stop-opacity="1" stop-color="rgb(96.166992%, 84.289551%, 70.881653%)" offset="0.6875"/><stop stop-opacity="1" stop-color="rgb(96.153259%, 84.60083%, 71.147156%)" offset="0.695312"/><stop stop-opacity="1" stop-color="rgb(96.138%, 84.910583%, 71.412659%)" offset="0.703125"/><stop stop-opacity="1" stop-color="rgb(96.124268%, 85.221863%, 71.678162%)" offset="0.710938"/><stop stop-opacity="1" stop-color="rgb(96.110535%, 85.533142%, 71.943665%)" offset="0.71875"/><stop stop-opacity="1" stop-color="rgb(96.095276%, 85.844421%, 72.209167%)" offset="0.726562"/><stop stop-opacity="1" stop-color="rgb(96.081543%, 86.155701%, 72.47467%)" offset="0.734375"/><stop stop-opacity="1" stop-color="rgb(96.066284%, 86.46698%, 72.740173%)" offset="0.742188"/><stop stop-opacity="1" stop-color="rgb(96.052551%, 86.778259%, 73.005676%)" offset="0.75"/><stop stop-opacity="1" stop-color="rgb(96.038818%, 87.088013%, 73.271179%)" offset="0.757812"/><stop stop-opacity="1" stop-color="rgb(96.02356%, 87.399292%, 73.536682%)" offset="0.765625"/><stop stop-opacity="1" stop-color="rgb(96.009827%, 87.710571%, 73.802185%)" offset="0.773438"/><stop stop-opacity="1" stop-color="rgb(95.996094%, 88.021851%, 74.067688%)" offset="0.78125"/><stop stop-opacity="1" stop-color="rgb(95.980835%, 88.33313%, 74.334717%)" offset="0.789062"/><stop stop-opacity="1" stop-color="rgb(95.967102%, 88.644409%, 74.60022%)" offset="0.796875"/><stop stop-opacity="1" stop-color="rgb(95.953369%, 88.955688%, 74.865723%)" offset="0.804688"/><stop stop-opacity="1" stop-color="rgb(95.93811%, 89.265442%, 75.131226%)" offset="0.8125"/><stop stop-opacity="1" stop-color="rgb(95.924377%, 89.576721%, 75.396729%)" offset="0.820312"/><stop stop-opacity="1" stop-color="rgb(95.910645%, 89.888%, 75.662231%)" offset="0.828125"/><stop stop-opacity="1" stop-color="rgb(95.895386%, 90.19928%, 75.927734%)" offset="0.835938"/><stop stop-opacity="1" stop-color="rgb(95.881653%, 90.510559%, 76.193237%)" offset="0.84375"/><stop stop-opacity="1" stop-color="rgb(95.86792%, 90.821838%, 76.45874%)" offset="0.851562"/><stop stop-opacity="1" stop-color="rgb(95.852661%, 91.133118%, 76.724243%)" offset="0.859375"/><stop stop-opacity="1" stop-color="rgb(95.838928%, 91.442871%, 76.989746%)" offset="0.867188"/><stop stop-opacity="1" stop-color="rgb(95.825195%, 91.75415%, 77.255249%)" offset="0.875"/><stop stop-opacity="1" stop-color="rgb(95.809937%, 92.06543%, 77.520752%)" offset="0.882812"/><stop stop-opacity="1" stop-color="rgb(95.796204%, 92.376709%, 77.786255%)" offset="0.890625"/><stop stop-opacity="1" stop-color="rgb(95.782471%, 92.687988%, 78.051758%)" offset="0.898438"/><stop stop-opacity="1" stop-color="rgb(95.767212%, 92.999268%, 78.318787%)" offset="0.90625"/><stop stop-opacity="1" stop-color="rgb(95.753479%, 93.310547%, 78.58429%)" offset="0.914062"/><stop stop-opacity="1" stop-color="rgb(95.739746%, 93.6203%, 78.849792%)" offset="0.921875"/><stop stop-opacity="1" stop-color="rgb(95.724487%, 93.93158%, 79.115295%)" offset="0.929688"/><stop stop-opacity="1" stop-color="rgb(95.710754%, 94.242859%, 79.380798%)" offset="0.9375"/><stop stop-opacity="1" stop-color="rgb(95.700073%, 94.448853%, 79.556274%)" offset="1"/></linearGradient></defs><g clip-path="url(#cc1c807234)"><g clip-path="url(#5eb5836bc9)"><path fill="url(#0c9d588ebd)" d="M 216.777344 258.15625 L 255.625 5.355469 L 5.136719 -33.042969 L -33.710938 219.757812 Z M 216.777344 258.15625 " fill-rule="nonzero"/></g></g></svg>