<svg xmlns="http://www.w3.org/2000/svg" xmlns:xlink="http://www.w3.org/1999/xlink" width="100" zoomAndPan="magnify" viewBox="0 0 75 74.999997" height="100" preserveAspectRatio="xMidYMid meet" version="1.0"><defs><filter x="0%" y="0%" width="100%" height="100%" id="dcf64b88d2"><feColorMatrix values="0 0 0 0 1 0 0 0 0 1 0 0 0 0 1 0 0 0 1 0" color-interpolation-filters="sRGB"/></filter><mask id="85eff6febd"><g filter="url(#dcf64b88d2)"><rect x="-7.5" width="90" fill="#000000" y="-7.5" height="89.999996" fill-opacity="0.3882"/></g></mask><clipPath id="23cada724d"><path d="M 11 0.453125 L 36 0.453125 L 36 34 L 11 34 Z M 11 0.453125 " clip-rule="nonzero"/></clipPath><clipPath id="05528a62d4"><path d="M 0.535156 28 L 9 28 L 9 34 L 0.535156 34 Z M 0.535156 28 " clip-rule="nonzero"/></clipPath><clipPath id="71834248ff"><path d="M 35 0.453125 L 44 0.453125 L 44 28 L 35 28 Z M 35 0.453125 " clip-rule="nonzero"/></clipPath><clipPath id="02ae4c359b"><path d="M 25 45 L 55 45 L 55 66.453125 L 25 66.453125 Z M 25 45 " clip-rule="nonzero"/></clipPath><clipPath id="1f7876eee6"><path d="M 56 27 L 66.535156 27 L 66.535156 51 L 56 51 Z M 56 27 " clip-rule="nonzero"/></clipPath><clipPath id="17e6b6d8b7"><path d="M 38 53 L 55 53 L 55 66.453125 L 38 66.453125 Z M 38 53 " clip-rule="nonzero"/></clipPath><clipPath id="5b869f0068"><path d="M 0.535156 33 L 22 33 L 22 38 L 0.535156 38 Z M 0.535156 33 " clip-rule="nonzero"/></clipPath><clipPath id="6f9ecf68c0"><rect x="0" width="67" y="0" height="67"/></clipPath></defs><g mask="url(#85eff6febd)"><g transform="matrix(1, 0, 0, 1, 4, 4)"><g clip-path="url(#6f9ecf68c0)"><path fill="#000000" d="M 7.925781 21.449219 C 9.480469 21.863281 11.144531 22.09375 12.75 21.957031 C 15.671875 21.710938 18.359375 20.453125 19.984375 17.953125 C 21.457031 15.683594 21.847656 12.714844 21.265625 10.101562 C 20.921875 8.570312 20.285156 7.191406 19.449219 5.875 C 19.074219 5.285156 18.660156 4.742188 18.230469 4.214844 C 17.863281 4.40625 17.5 4.601562 17.140625 4.808594 C 17.890625 6.449219 18.453125 8.210938 18.753906 9.921875 C 19.136719 12.074219 18.917969 14.441406 17.707031 16.300781 C 16.5 18.164062 14.296875 18.976562 12.144531 19.007812 C 10.792969 19.03125 9.503906 18.746094 8.210938 18.382812 C 7.519531 18.183594 6.839844 17.917969 6.132812 17.761719 C 5.632812 17.652344 5.117188 17.59375 4.609375 17.515625 C 4.273438 18.125 3.953125 18.75 3.652344 19.382812 C 4.257812 19.824219 4.835938 20.292969 5.523438 20.609375 C 6.289062 20.960938 7.113281 21.234375 7.925781 21.449219 " fill-opacity="1" fill-rule="nonzero"/><g clip-path="url(#23cada724d)"><path fill="#000000" d="M 32.707031 13.625 C 32.15625 19.941406 28.386719 25.503906 22.742188 28.394531 C 21.25 29.15625 19.644531 29.683594 17.996094 29.984375 C 16.324219 30.285156 14.386719 29.917969 12.8125 30.539062 C 11.734375 30.960938 11.585938 32.199219 12.503906 32.882812 C 13.945312 33.949219 16.179688 33.695312 17.855469 33.476562 C 19.667969 33.238281 21.394531 32.722656 23.070312 32.003906 C 26.265625 30.628906 29.148438 28.429688 31.3125 25.710938 C 35.980469 19.84375 37.125 11.789062 34.78125 4.710938 C 34.296875 3.246094 33.6875 1.816406 32.960938 0.453125 C 31.972656 0.472656 31 0.53125 30.039062 0.632812 C 30.578125 1.6875 31.066406 2.761719 31.449219 3.894531 C 32.503906 7.023438 32.992188 10.328125 32.707031 13.625 " fill-opacity="1" fill-rule="nonzero"/></g><g clip-path="url(#05528a62d4)"><path fill="#000000" d="M 8.375 32.925781 C 9.277344 32.464844 9.019531 31.070312 8.097656 30.816406 C 6.660156 30.425781 5.25 30.171875 3.871094 29.566406 C 2.882812 29.132812 1.890625 28.714844 0.910156 28.265625 C 0.734375 29.375 0.613281 30.503906 0.550781 31.644531 C 2.925781 32.714844 5.953125 34.15625 8.375 32.925781 " fill-opacity="1" fill-rule="nonzero"/></g><g clip-path="url(#71834248ff)"><path fill="#000000" d="M 40.144531 11.808594 C 40.09375 14.304688 39.707031 16.765625 38.964844 19.148438 C 38.59375 20.34375 38.144531 21.507812 37.59375 22.628906 C 37.023438 23.78125 36.289062 24.933594 35.988281 26.195312 C 35.757812 27.160156 36.886719 28.277344 37.824219 27.601562 C 40.066406 25.988281 41.167969 22.820312 41.96875 20.285156 C 42.820312 17.605469 43.269531 14.765625 43.320312 11.957031 C 43.378906 8.570312 42.871094 4.6875 41.414062 1.375 C 40.390625 1.128906 39.347656 0.925781 38.285156 0.777344 C 38.667969 1.972656 39.042969 3.175781 39.339844 4.398438 C 39.941406 6.84375 40.195312 9.292969 40.144531 11.808594 " fill-opacity="1" fill-rule="nonzero"/></g><path fill="#000000" d="M 11.492188 43.828125 C 17.042969 43.191406 22.480469 41.359375 27.15625 38.285156 C 29.691406 36.621094 32.273438 34.5625 33.8125 31.910156 C 34.148438 31.332031 33.453125 30.550781 32.851562 30.953125 C 30.730469 32.375 28.796875 34.035156 26.617188 35.378906 C 24.445312 36.714844 22.140625 37.851562 19.742188 38.726562 C 14.96875 40.46875 9.824219 41.203125 4.75 40.828125 C 3.5625 40.742188 2.394531 40.566406 1.230469 40.359375 C 1.464844 41.46875 1.757812 42.554688 2.105469 43.621094 C 2.507812 43.679688 2.914062 43.734375 3.320312 43.785156 C 6.023438 44.117188 8.785156 44.140625 11.492188 43.828125 " fill-opacity="1" fill-rule="nonzero"/><path fill="#000000" d="M 54.167969 13.570312 C 54.089844 17.261719 53.65625 20.875 52.808594 24.46875 C 51.148438 31.507812 47.910156 38.226562 43.207031 43.75 C 41.789062 45.414062 40.257812 47.039062 38.523438 48.378906 C 37.707031 49.011719 36.824219 49.546875 35.929688 50.054688 C 35.476562 50.3125 35.003906 50.542969 34.550781 50.800781 C 33.980469 51.132812 33.695312 51.527344 33.25 52 C 32.859375 52.410156 33.039062 53.0625 33.574219 53.230469 C 34.6875 53.582031 35.453125 53.570312 36.5625 53.15625 C 37.585938 52.773438 38.527344 52.246094 39.421875 51.628906 C 41.117188 50.457031 42.648438 49.070312 44.054688 47.570312 C 46.789062 44.660156 49.15625 41.386719 51.078125 37.890625 C 54.914062 30.898438 57.042969 23.042969 57.191406 15.074219 C 57.222656 13.457031 57.179688 11.789062 57.007812 10.128906 C 56.039062 9.164062 55.011719 8.257812 53.929688 7.414062 C 54.078125 9.464844 54.214844 11.511719 54.167969 13.570312 " fill-opacity="1" fill-rule="nonzero"/><path fill="#000000" d="M 22.835938 58.195312 C 23.898438 57.9375 24.933594 57.640625 25.957031 57.257812 C 27.003906 56.871094 27.898438 56.34375 28.882812 55.824219 C 29.398438 55.554688 29.011719 54.890625 28.519531 54.960938 C 27.484375 55.109375 26.457031 55.152344 25.421875 55.324219 C 24.40625 55.492188 23.390625 55.675781 22.375 55.851562 C 20.339844 56.203125 18.296875 56.5 16.238281 56.667969 C 14.257812 56.828125 12.265625 56.902344 10.28125 56.878906 C 11.199219 57.789062 12.171875 58.644531 13.191406 59.445312 C 14.328125 59.402344 15.464844 59.324219 16.601562 59.207031 C 18.695312 58.988281 20.785156 58.683594 22.835938 58.195312 " fill-opacity="1" fill-rule="nonzero"/><path fill="#000000" d="M 58.429688 33.195312 C 57.925781 34.5625 57.363281 35.90625 56.75 37.230469 C 56.292969 38.214844 55.324219 39.675781 55.699219 40.800781 C 55.6875 40.894531 55.671875 40.992188 55.65625 41.089844 C 55.570312 41.734375 56.226562 42.179688 56.753906 41.726562 C 56.828125 41.667969 56.894531 41.605469 56.964844 41.546875 C 58.183594 41.328125 58.914062 39.304688 59.351562 38.355469 C 60.015625 36.910156 60.621094 35.4375 61.164062 33.945312 C 62.210938 31.085938 63.023438 28.136719 63.59375 25.144531 C 63.859375 23.746094 64.0625 22.335938 64.210938 20.914062 C 63.550781 19.316406 62.773438 17.78125 61.882812 16.320312 C 61.730469 19.152344 61.351562 21.949219 60.800781 24.726562 C 60.230469 27.605469 59.4375 30.4375 58.429688 33.195312 " fill-opacity="1" fill-rule="nonzero"/><g clip-path="url(#02ae4c359b)"><path fill="#000000" d="M 42.46875 60.632812 C 44.757812 58.714844 47.042969 56.757812 49.132812 54.621094 C 50.257812 53.46875 51.347656 52.265625 52.296875 50.957031 C 53.269531 49.613281 53.851562 48.195312 54.355469 46.621094 C 54.511719 46.132812 53.800781 45.679688 53.457031 46.101562 C 50.015625 50.328125 45.878906 53.910156 41.691406 57.378906 C 39.417969 59.265625 37.089844 61.121094 34.445312 62.472656 C 31.980469 63.730469 29.296875 64.523438 26.613281 65.167969 C 26.210938 65.261719 25.808594 65.355469 25.40625 65.441406 C 27.792969 66.050781 30.28125 66.394531 32.84375 66.453125 C 33.492188 66.210938 34.136719 65.953125 34.777344 65.667969 C 37.601562 64.410156 40.109375 62.613281 42.46875 60.632812 " fill-opacity="1" fill-rule="nonzero"/></g><path fill="#000000" d="M 10.933594 27.15625 C 15.210938 27.207031 20.308594 25.925781 22.96875 22.351562 C 23.546875 21.570312 22.460938 20.773438 21.746094 21.132812 C 20.03125 21.984375 18.328125 22.953125 16.496094 23.546875 C 14.59375 24.164062 12.613281 24.433594 10.617188 24.414062 C 8.53125 24.398438 6.476562 24.015625 4.46875 23.453125 C 3.730469 23.246094 3.003906 23.003906 2.285156 22.738281 C 2.027344 23.488281 1.796875 24.253906 1.589844 25.03125 C 2.3125 25.351562 3.050781 25.644531 3.792969 25.90625 C 6.074219 26.707031 8.515625 27.128906 10.933594 27.15625 " fill-opacity="1" fill-rule="nonzero"/><path fill="#000000" d="M 25.226562 12.070312 C 25.070312 13.851562 24.894531 15.765625 24.433594 17.492188 C 24.222656 18.285156 25.375 18.808594 25.78125 18.0625 C 26.734375 16.320312 27.5 14.714844 27.867188 12.742188 C 28.230469 10.761719 28.277344 8.726562 28.054688 6.730469 C 27.839844 4.824219 27.445312 2.949219 26.792969 1.144531 C 25.855469 1.339844 24.933594 1.574219 24.027344 1.847656 C 24.613281 3.46875 25.035156 5.171875 25.210938 6.886719 C 25.390625 8.609375 25.378906 10.347656 25.226562 12.070312 " fill-opacity="1" fill-rule="nonzero"/><path fill="#000000" d="M 13.25 11.464844 C 13.027344 12.246094 12.527344 13.035156 11.734375 13.328125 C 11.371094 13.464844 11.011719 13.460938 10.632812 13.40625 C 10.207031 13.347656 9.851562 13.375 9.425781 13.375 C 9.03125 13.375 8.765625 13.75 8.855469 14.121094 C 9.195312 15.5625 10.644531 15.855469 11.957031 15.597656 C 13.3125 15.328125 14.425781 14.378906 15.015625 13.144531 C 15.652344 11.796875 15.792969 10.1875 15.375 8.75 C 15.136719 7.945312 14.753906 7.265625 14.296875 6.636719 C 13.8125 6.984375 13.335938 7.347656 12.871094 7.71875 C 13.34375 8.941406 13.597656 10.238281 13.25 11.464844 " fill-opacity="1" fill-rule="nonzero"/><path fill="#000000" d="M 45.734375 14.496094 C 45.324219 16.722656 44.691406 18.898438 43.882812 21.011719 C 43.046875 23.210938 41.871094 25.25 40.90625 27.390625 C 40.625 28.015625 41.402344 28.785156 41.9375 28.183594 C 45.066406 24.65625 46.628906 19.527344 47.378906 14.949219 C 47.996094 11.175781 48.132812 7.128906 47.226562 3.367188 C 46.84375 3.195312 46.453125 3.03125 46.0625 2.871094 C 46.335938 6.761719 46.445312 10.617188 45.734375 14.496094 " fill-opacity="1" fill-rule="nonzero"/><path fill="#000000" d="M 32.316406 40.078125 C 34.933594 38.097656 37.519531 35.945312 39.152344 33.066406 C 39.359375 32.699219 38.929688 32.230469 38.550781 32.46875 C 36.238281 33.945312 34.230469 35.789062 32.046875 37.453125 C 29.800781 39.167969 27.40625 40.703125 24.914062 42.039062 C 20.097656 44.625 14.796875 46.460938 9.351562 47.097656 C 7.4375 47.320312 5.515625 47.375 3.589844 47.390625 C 4.023438 48.320312 4.5 49.222656 5.015625 50.101562 C 9.015625 50.128906 13.097656 49.273438 16.804688 48.117188 C 22.398438 46.378906 27.65625 43.617188 32.316406 40.078125 " fill-opacity="1" fill-rule="nonzero"/><path fill="#000000" d="M 40.480469 40.886719 C 43.023438 38.042969 45.308594 34.875 46.398438 31.1875 C 46.710938 30.121094 45.246094 29.59375 44.664062 30.457031 C 42.878906 33.101562 41.21875 35.847656 39.132812 38.269531 C 37.078125 40.65625 34.730469 42.78125 32.167969 44.613281 C 26.503906 48.671875 19.832031 51.148438 12.960938 52.195312 C 10.914062 52.507812 8.859375 52.707031 6.800781 52.824219 C 7.277344 53.480469 7.777344 54.117188 8.300781 54.738281 C 20.324219 54.941406 32.457031 49.851562 40.480469 40.886719 " fill-opacity="1" fill-rule="nonzero"/><path fill="#000000" d="M 49.371094 11.722656 C 49.273438 16.347656 48.46875 20.863281 47.726562 25.414062 C 47.644531 25.925781 48.34375 26.320312 48.625 25.792969 C 50.878906 21.601562 51.839844 16.792969 52.117188 12.074219 C 52.238281 10.058594 52.195312 8.042969 52.019531 6.03125 C 51.070312 5.398438 50.085938 4.8125 49.074219 4.273438 C 49.09375 4.46875 49.113281 4.660156 49.132812 4.855469 C 49.363281 7.132812 49.421875 9.433594 49.371094 11.722656 " fill-opacity="1" fill-rule="nonzero"/><g clip-path="url(#1f7876eee6)"><path fill="#000000" d="M 60.183594 42.394531 C 58.929688 44.703125 57.378906 46.851562 56.15625 49.167969 C 55.753906 49.929688 56.816406 50.878906 57.417969 50.136719 C 59.0625 48.101562 60.273438 45.660156 61.449219 43.332031 C 62.628906 40.984375 63.628906 38.550781 64.515625 36.078125 C 65.214844 34.117188 65.90625 32.136719 66.519531 30.132812 C 66.445312 29.398438 66.34375 28.671875 66.222656 27.953125 C 65.492188 30.578125 64.648438 33.167969 63.539062 35.667969 C 62.523438 37.960938 61.378906 40.191406 60.183594 42.394531 " fill-opacity="1" fill-rule="nonzero"/></g><g clip-path="url(#17e6b6d8b7)"><path fill="#000000" d="M 54.214844 54.609375 C 54.472656 54.074219 53.769531 53.40625 53.328125 53.925781 C 51.1875 56.445312 48.710938 58.808594 46.070312 60.800781 C 44.71875 61.816406 43.335938 62.789062 41.929688 63.734375 C 41.222656 64.210938 40.558594 64.734375 39.878906 65.246094 C 39.507812 65.527344 39.09375 65.765625 38.738281 66.066406 C 40.71875 65.757812 42.644531 65.269531 44.492188 64.628906 C 45.53125 63.929688 46.550781 63.207031 47.53125 62.429688 C 50.289062 60.242188 52.679688 57.808594 54.214844 54.609375 " fill-opacity="1" fill-rule="nonzero"/></g><path fill="#000000" d="M 28.519531 61.675781 C 31 60.851562 33.421875 59.828125 35.730469 58.605469 C 36.898438 57.988281 38.050781 57.332031 39.140625 56.589844 C 40.226562 55.855469 41.507812 55.085938 42.132812 53.90625 C 42.402344 53.394531 41.960938 52.804688 41.390625 52.941406 C 40.164062 53.238281 39.144531 54.125 38.09375 54.796875 C 37.074219 55.453125 36.050781 56.097656 34.996094 56.695312 C 32.722656 57.984375 30.339844 59.09375 27.882812 59.984375 C 24.726562 61.128906 21.375 62.023438 17.996094 62.570312 C 18.667969 62.929688 19.351562 63.265625 20.046875 63.578125 C 20.265625 63.550781 20.484375 63.527344 20.703125 63.5 C 23.367188 63.136719 25.972656 62.523438 28.519531 61.675781 " fill-opacity="1" fill-rule="nonzero"/><path fill="#000000" d="M 57.6875 23.273438 C 56.480469 28.84375 54.625 34.28125 52.152344 39.417969 C 50.738281 42.351562 49.332031 45.371094 47.53125 48.085938 C 47.339844 48.375 47.789062 48.621094 47.988281 48.355469 C 49.746094 45.972656 51.558594 43.660156 52.976562 41.054688 C 54.390625 38.453125 55.617188 35.761719 56.667969 33 C 58.75 27.519531 60.058594 21.777344 60.65625 15.953125 C 60.703125 15.511719 60.742188 15.074219 60.777344 14.632812 C 60.257812 13.886719 59.707031 13.160156 59.128906 12.460938 C 59.085938 13.183594 59.035156 13.90625 58.976562 14.625 C 58.738281 17.535156 58.304688 20.421875 57.6875 23.273438 " fill-opacity="1" fill-rule="nonzero"/><g clip-path="url(#5b869f0068)"><path fill="#000000" d="M 14.871094 37.125 C 15.980469 36.921875 17.09375 36.621094 18.152344 36.242188 C 19.132812 35.890625 20.289062 35.5625 21.0625 34.847656 C 21.414062 34.523438 21.152344 33.859375 20.664062 33.886719 C 19.664062 33.9375 18.683594 34.402344 17.710938 34.644531 C 16.664062 34.910156 15.613281 35.132812 14.546875 35.320312 C 12.316406 35.714844 10.078125 35.832031 7.8125 35.828125 C 5.371094 35.828125 2.960938 35.585938 0.554688 35.304688 C 0.585938 35.882812 0.632812 36.460938 0.695312 37.03125 C 3.175781 37.480469 5.703125 37.703125 8.160156 37.71875 C 10.402344 37.734375 12.664062 37.53125 14.871094 37.125 " fill-opacity="1" fill-rule="nonzero"/></g></g></g></g></svg>