<svg xmlns="http://www.w3.org/2000/svg" xmlns:xlink="http://www.w3.org/1999/xlink" width="60" zoomAndPan="magnify" viewBox="0 0 45 30.000001" height="40" preserveAspectRatio="xMidYMid meet" version="1.0"><defs><clipPath id="82acb6b0a1"><path d="M 2 9 L 44 9 L 44 18 L 2 18 Z M 2 9 " clip-rule="nonzero"/></clipPath><clipPath id="863de03199"><path d="M 1.671875 12.238281 L 43.609375 8.617188 L 44.296875 16.574219 L 2.355469 20.195312 Z M 1.671875 12.238281 " clip-rule="nonzero"/></clipPath><clipPath id="583b9c7bcd"><path d="M 1.671875 12.238281 L 43.609375 8.617188 L 44.296875 16.574219 L 2.355469 20.195312 Z M 1.671875 12.238281 " clip-rule="nonzero"/></clipPath></defs><g clip-path="url(#82acb6b0a1)"><g clip-path="url(#863de03199)"><g clip-path="url(#583b9c7bcd)"><path fill="#b8f159" d="M 42.035156 10.324219 C 41.535156 10.238281 41.011719 10.234375 40.507812 10.191406 C 39.953125 10.148438 39.398438 10.117188 38.839844 10.09375 C 37.789062 10.054688 36.734375 10.023438 35.679688 10.007812 C 33.613281 9.972656 31.550781 10 29.484375 10.074219 C 25.242188 10.230469 21.003906 10.574219 16.789062 11.125 C 12.496094 11.691406 8.1875 12.382812 4.019531 13.578125 C 3.429688 13.75 2.84375 13.925781 2.261719 14.113281 C 1.894531 14.230469 2.09375 14.773438 2.453125 14.722656 C 6.660156 14.101562 10.847656 13.324219 15.066406 12.773438 C 19.011719 12.253906 22.984375 11.886719 26.960938 11.679688 C 30.886719 11.476562 34.828125 11.421875 38.753906 11.507812 C 39.367188 11.519531 39.984375 11.527344 40.597656 11.535156 C 41.019531 11.542969 41.457031 11.519531 41.878906 11.5625 C 42.039062 11.582031 42.207031 11.628906 42.355469 11.695312 C 42.421875 11.722656 42.480469 11.753906 42.535156 11.796875 C 42.460938 11.820312 42.355469 11.875 42.273438 11.886719 C 41.332031 12.035156 40.363281 12.101562 39.414062 12.207031 C 38.324219 12.324219 37.234375 12.449219 36.144531 12.566406 C 32.132812 13 28.132812 13.507812 24.125 14.003906 C 23.628906 14.066406 23.136719 14.128906 22.640625 14.1875 C 22.324219 14.226562 22.261719 14.714844 22.609375 14.753906 C 26.71875 15.226562 30.820312 15.800781 34.921875 16.34375 C 34.066406 16.621094 33.21875 16.902344 32.371094 17.207031 C 32.144531 17.285156 32.253906 17.613281 32.484375 17.550781 C 33.699219 17.21875 34.898438 16.859375 36.097656 16.484375 C 36.382812 16.394531 36.335938 16.035156 36.050781 16 C 32.433594 15.515625 28.8125 15.058594 25.199219 14.550781 C 28.660156 14.273438 32.121094 14.019531 35.578125 13.6875 C 37.734375 13.480469 39.890625 13.273438 42.050781 13.082031 C 42.476562 13.042969 42.914062 12.996094 43.28125 12.761719 C 43.640625 12.53125 43.863281 12.117188 43.824219 11.699219 C 43.75 10.847656 42.78125 10.453125 42.035156 10.324219 " fill-opacity="1" fill-rule="nonzero"/></g></g></g></svg>