<svg xmlns="http://www.w3.org/2000/svg" xmlns:xlink="http://www.w3.org/1999/xlink" width="160" zoomAndPan="magnify" viewBox="0 0 120 30.000001" height="40" preserveAspectRatio="xMidYMid meet" version="1.0"><defs><clipPath id="5f1bf098d4"><path d="M 5 4 L 115 4 L 115 25 L 5 25 Z M 5 4 " clip-rule="nonzero"/></clipPath><clipPath id="07b521786b"><path d="M 4.449219 10.40625 L 113.640625 0.980469 L 115.453125 21.949219 L 6.261719 31.378906 Z M 4.449219 10.40625 " clip-rule="nonzero"/></clipPath><clipPath id="20a54fb158"><path d="M 4.449219 10.40625 L 113.640625 0.980469 L 115.453125 21.949219 L 6.261719 31.378906 Z M 4.449219 10.40625 " clip-rule="nonzero"/></clipPath><clipPath id="5fa9ffc43a"><path d="M 111 9 L 112 9 L 112 10 L 111 10 Z M 111 9 " clip-rule="nonzero"/></clipPath><clipPath id="7b71fb1c1c"><path d="M 4.449219 10.40625 L 113.640625 0.980469 L 115.453125 21.949219 L 6.261719 31.378906 Z M 4.449219 10.40625 " clip-rule="nonzero"/></clipPath><clipPath id="d261606c1f"><path d="M 4.449219 10.40625 L 113.640625 0.980469 L 115.453125 21.949219 L 6.261719 31.378906 Z M 4.449219 10.40625 " clip-rule="nonzero"/></clipPath></defs><g clip-path="url(#5f1bf098d4)"><g clip-path="url(#07b521786b)"><g clip-path="url(#20a54fb158)"><path fill="#ffbc49" d="M 109.527344 5.472656 C 108.222656 5.246094 106.871094 5.230469 105.554688 5.121094 C 104.109375 5.003906 102.664062 4.917969 101.214844 4.859375 C 98.472656 4.75 95.730469 4.667969 92.988281 4.617188 C 87.609375 4.523438 82.238281 4.585938 76.859375 4.78125 C 65.8125 5.175781 54.78125 6.066406 43.820312 7.511719 C 32.640625 8.988281 21.425781 10.804688 10.585938 13.941406 C 9.050781 14.386719 7.527344 14.859375 6.007812 15.347656 C 5.054688 15.652344 5.578125 17.085938 6.507812 16.949219 C 17.460938 15.324219 28.351562 13.292969 39.332031 11.847656 C 49.609375 10.496094 59.945312 9.539062 70.296875 9.007812 C 80.511719 8.484375 90.769531 8.347656 100.996094 8.582031 C 102.59375 8.621094 104.191406 8.636719 105.789062 8.664062 C 106.890625 8.683594 108.027344 8.625 109.125 8.738281 C 109.546875 8.785156 109.980469 8.90625 110.371094 9.082031 C 110.535156 9.160156 110.691406 9.246094 110.839844 9.351562 C 110.640625 9.421875 110.367188 9.5625 110.160156 9.59375 C 107.699219 9.984375 105.1875 10.15625 102.714844 10.425781 C 99.878906 10.738281 97.042969 11.058594 94.207031 11.363281 C 83.765625 12.492188 73.347656 13.820312 62.925781 15.121094 C 61.632812 15.28125 60.34375 15.449219 59.054688 15.605469 C 58.230469 15.703125 58.074219 16.988281 58.976562 17.097656 C 69.675781 18.355469 80.351562 19.875 91.03125 21.320312 C 88.808594 22.042969 86.59375 22.789062 84.394531 23.582031 C 83.804688 23.796875 84.089844 24.660156 84.691406 24.496094 C 87.851562 23.625 90.972656 22.679688 94.09375 21.695312 C 94.832031 21.460938 94.710938 20.511719 93.96875 20.414062 C 84.554688 19.128906 75.125 17.917969 65.71875 16.566406 C 74.726562 15.84375 83.738281 15.1875 92.734375 14.324219 C 98.347656 13.78125 103.960938 13.242188 109.578125 12.738281 C 110.6875 12.640625 111.824219 12.523438 112.777344 11.902344 C 113.714844 11.296875 114.292969 10.203125 114.195312 9.097656 C 114 6.855469 111.46875 5.8125 109.527344 5.472656 " fill-opacity="1" fill-rule="nonzero"/></g></g></g><g clip-path="url(#5fa9ffc43a)"><g clip-path="url(#7b71fb1c1c)"><g clip-path="url(#d261606c1f)"><path fill="#ffbc49" d="M 111.015625 9.3125 C 111.011719 9.3125 111.011719 9.3125 111.003906 9.3125 C 111.003906 9.3125 111.003906 9.3125 111.003906 9.316406 C 111.007812 9.316406 111.015625 9.3125 111.015625 9.3125 " fill-opacity="1" fill-rule="nonzero"/></g></g></g></svg>